<?xml version="1.0" standalone="no"?><!DOCTYPE svg PUBLIC "-//W3C//DTD SVG 1.1//EN" "http://www.w3.org/Graphics/SVG/1.1/DTD/svg11.dtd"><svg t="1714452777203" class="icon" viewBox="0 0 1705 1024" version="1.1" xmlns="http://www.w3.org/2000/svg" p-id="5356" width="333.0078125" height="200" xmlns:xlink="http://www.w3.org/1999/xlink"><path d="M651.264 479.232c-16.64-17.408-40.192-26.368-64-24.064-19.968 1.28-38.4 9.728-52.48 24.064l-20.224 20.224-29.696-30.72-2.048 1.28-26.624 27.136-9.728 9.216 9.728 10.496 19.968 20.736-20.224 20.224-9.728 9.728 9.728 9.728 26.624 27.392 2.048 1.28 29.952-30.464 19.968 20.224c13.824 14.08 32.512 22.784 52.48 24.064 24.064 2.304 47.616-6.656 64.256-24.064 16.128-15.616 24.064-37.12 24.064-57.856-0.256-21.504-7.936-43.008-24.064-58.624z m-38.4 78.08c-6.656 6.912-16.64 9.728-25.856 7.68-5.12-0.768-9.728-3.328-14.336-7.936-8.96-8.96-19.968-19.456-19.968-19.456s11.008-11.776 19.968-20.224c4.608-4.608 9.216-7.168 14.336-7.68 8.96-2.56 18.944 0 25.856 7.936 5.888 5.12 8.448 12.288 8.448 20.224 0.256 7.424-3.072 14.336-8.448 19.456zM129.28 619.008c19.456-1.28 38.4-8.96 52.48-24.064 9.216-8.96 20.224-20.224 20.224-20.224l30.464 30.72 1.792-1.792 26.624-26.624 9.728-9.728-9.728-9.216-20.736-20.736 20.736-21.504 9.728-9.728-9.728-9.216-26.624-26.624-1.792-2.048-30.464 30.464s-11.008-11.008-19.968-20.224c-14.336-15.104-33.024-22.784-52.48-24.064-23.808-2.048-47.616 6.656-64.256 24.064-16.128 15.616-24.064 37.12-24.064 58.624 0 20.736 7.68 42.24 24.064 57.856 16.384 17.152 39.936 26.112 64 24.064z m-25.856-102.4c7.168-7.168 16.896-10.496 25.856-7.68 5.12 0.768 10.496 3.328 14.336 7.68 8.96 8.448 19.968 20.224 19.968 20.224s-11.008 10.496-20.224 19.456c-3.584 4.352-8.704 7.168-14.336 7.68-9.472 2.048-19.2-1.024-25.856-7.936-5.12-5.12-8.192-12.288-8.448-19.456 0.256-7.424 3.584-14.592 8.704-19.968z" fill="#ffffff" p-id="5357"></path><path d="M494.848 635.648l-12.288-12.288c-8.96-8.96-17.92-18.176-26.624-27.392-27.904-27.392-58.88-58.624-58.88-58.624s31.232-31.744 59.136-59.136c8.704-9.216 17.664-18.432 26.624-27.392l12.288-12.288c32.512-32.512 32.512-85.248 0.256-116.992-3.84-3.84-7.68-7.936-12.288-10.496-7.936-5.632-16.896-9.728-26.624-11.776-27.392-6.656-56.32 0.512-77.312 22.016-13.056 12.288-20.224 20.224-20.224 20.224l-19.968-20.224c-20.224-20.736-49.664-29.184-77.824-22.272-9.472 2.048-18.688 6.144-26.624 11.776-4.352 3.072-8.448 6.656-12.288 10.496-32.512 31.744-32.512 84.48-0.256 116.992l12.288 12.288 26.624 26.624 59.392 59.904s-31.744 31.232-59.648 59.136c-8.96 8.96-17.92 17.664-26.624 26.624l-12.288 12.288c-32.512 32.512-32.512 85.248-0.256 117.248 3.84 3.84 7.68 7.168 12.288 10.496 8.448 5.888 17.408 9.728 26.624 11.776 27.904 6.912 57.6-1.536 77.824-22.016l20.224-20.224s7.168 7.936 19.968 20.224c20.736 21.504 49.92 28.672 77.056 22.272 9.472-2.048 18.432-6.144 26.624-11.776 4.608-2.56 8.448-6.4 12.288-10.496 32.768-31.488 32.768-84.224 0.512-116.992zM261.12 400.64l-0.768-0.768c-11.008-11.776-11.008-29.184 0-40.192 0-0.768 0.768-0.768 0.768-1.28 11.776-9.728 29.184-9.728 39.424 1.28l19.968 20.224-30.208 29.696 38.144 38.4 30.464-29.952 30.464 29.952 38.4-38.4-30.464-29.952s9.216-9.728 20.224-20.224c10.496-11.008 27.904-11.008 38.912-1.28l1.28 1.28c11.008 11.008 11.008 28.672 0 40.192-0.768 0-1.28 0.768-1.28 1.28-15.616 15.616-98.048 97.28-98.048 97.28s-81.664-81.92-97.28-97.536z m195.84 313.856c-0.768 0.768-1.28 0.768-1.28 1.28-11.008 9.728-28.672 9.728-38.912-1.28-11.008-10.496-19.968-20.224-19.968-20.224l30.464-30.464-38.144-38.4-30.464 30.464-30.464-30.72-38.4 38.4 30.464 30.464s-9.728 9.728-19.968 20.224c-10.496 11.008-27.904 11.008-39.68 1.28 0-0.512-0.768-0.512-0.768-1.28-11.008-11.264-11.008-29.184 0-40.448l0.768-0.512 97.28-98.048 97.792 97.792c0 0.768 0.768 1.28 1.28 1.28 11.264 10.752 11.264 29.184 0 40.192z" fill="#ffffff" p-id="5358"></path><path d="M1115.648 646.144c-6.656-6.656-14.08-10.752-22.016-11.264-1.792-0.512-2.816-0.512-3.84-0.512-11.264 0-20.736 3.84-28.16 11.776s-11.264 17.92-11.264 29.952c0 11.776 3.84 22.016 11.264 29.952 7.936 7.936 16.896 11.776 28.672 11.776h3.328c7.936-1.024 15.104-4.352 22.016-10.752v8.448h19.2v-79.104h-19.2v9.728z m-5.632 47.872c-3.84 5.12-9.472 7.424-16.384 7.424h-0.512c-6.656 0-12.288-2.304-16.896-7.424-3.84-4.608-6.144-10.752-6.144-17.92 0-7.424 2.304-13.056 6.656-17.92 3.84-4.608 9.472-6.656 16.384-6.656h0.512c6.656 0 12.288 2.304 16.384 6.912 4.608 4.608 6.656 10.752 6.656 17.92 0.256 7.168-2.048 13.312-6.656 17.664z m-216.832-58.88c-15.104 0-22.528 9.984-22.528 9.984v-44.544h-20.224l-0.256 114.944h20.224v-48.64c0-10.24 5.632-18.688 16.896-18.688 11.776 0 15.104 10.752 15.104 18.688v48.64h17.92v-46.848c0.512-23.808-12.544-33.536-27.136-33.536z m-93.952-5.12c8.448-0.256 16.384 3.328 22.016 9.728 1.792 2.816 3.84 5.12 4.608 8.448l17.408-12.288c-4.352-6.144-10.24-11.264-16.896-15.104-8.448-4.608-17.408-7.424-26.368-7.424-13.568 0-24.832 4.352-34.816 13.568-11.776 10.752-17.408 23.552-17.408 38.912 0 14.592 5.12 27.136 15.104 37.376s22.528 15.36 37.12 15.36c9.472 0 18.432-2.304 26.368-6.656 7.424-3.84 12.288-8.96 16.896-15.104-5.888-4.096-11.776-8.192-17.408-12.544-0.512 2.816-2.816 5.632-4.608 7.936-6.144 7.424-13.568 9.984-22.016 9.984-8.96 0-15.872-2.816-21.248-9.728-6.144-6.912-8.96-15.872-8.96-26.624 0-10.24 2.816-18.688 8.96-25.344 5.12-6.912 13.056-10.752 21.248-10.496z m191.232 37.376c0-10.24 6.144-18.688 17.408-18.688 11.776 0 15.104 10.752 15.104 18.688v48.384h18.688v-46.848c0-24.32-13.312-33.792-27.392-33.792-19.2-0.512-25.344 9.984-25.344 9.984l-1.024-8.96h-16.896l-0.256 79.616h19.712v-48.384z" fill="#ffffff" p-id="5359"></path><path d="M935.936 635.904h18.432v80.128h-18.432zM945.408 606.464c-6.656 0-11.264 4.352-11.264 10.752 0 5.888 4.608 10.752 10.496 10.752h0.512c6.656 0 10.752-5.12 10.752-10.752 0.256-6.144-3.584-10.752-10.496-10.752z" fill="#ffffff" p-id="5360"></path><path d="M1615.872 637.184c-11.776-0.512-19.712 4.608-26.368 12.288-5.12-8.448-12.8-12.544-20.736-12.544-16.896-0.512-24.32 9.984-24.32 9.984l-0.512-9.472h-17.92v79.616h20.224v-47.872c0-10.752 5.12-18.688 15.872-18.688s13.568 10.24 13.568 18.688v47.872h18.432v-47.36 0.512c0-13.568 6.144-19.712 15.104-19.712 10.752 0 14.08 10.24 14.08 18.688v47.872h17.92v-46.848c0-23.552-11.776-33.024-25.344-33.024z" fill="#ffffff" p-id="5361"></path><path d="M1334.528 607.232c-6.656 0-11.264 5.12-11.264 11.264 0 5.632 4.352 10.24 10.752 10.24h0.512c6.656 0 10.752-4.608 10.752-10.24-0.256-6.144-4.096-11.008-10.752-11.264zM1324.8 637.184h18.432V716.8h-18.432v-79.616z" fill="#ffffff" p-id="5362"></path><path d="M1511.424 656.128c-3.328-6.144-8.96-11.264-15.104-14.592-5.888-3.84-12.8-5.888-19.712-5.632h-1.792c-9.984 0-19.712 3.84-26.88 10.752-8.96 7.936-13.568 17.92-13.568 30.464 0 11.776 3.84 21.248 11.776 29.44 7.936 8.448 17.408 12.288 29.184 12.544 0.512 0 0.512 0 1.024-0.512 14.336 0.256 27.904-7.68 34.816-20.224 3.328-6.144 5.632-13.568 5.632-20.992 0.256-7.68-2.048-14.336-5.376-21.248z m-19.2 41.216c-3.84 5.12-9.472 7.424-15.616 7.936-6.656 0-11.776-2.816-15.616-7.936-4.608-5.12-6.144-11.776-6.144-20.224 0-7.936 1.792-14.592 6.144-19.712 4.608-5.12 9.472-7.936 15.616-7.936 6.656 0 11.776 2.816 16.384 7.936 3.84 5.12 6.144 11.776 6.144 19.712 0 8.448-2.304 15.104-6.912 20.224zM1282.048 636.16c-18.432-0.512-24.832 9.984-24.832 9.984l-1.024-8.96h-16.896V716.8h19.712v-47.872c0-10.752 5.632-19.2 16.896-19.2 11.776 0 15.104 10.752 15.104 19.2V716.8h18.432v-46.848c0.256-24.32-12.544-33.792-27.392-33.792zM1203.456 685.056c0 10.752-5.632 18.688-17.408 18.688s-16.384-10.24-16.384-18.688v-47.872h-19.712V683.52c0 24.832 15.616 33.792 29.696 34.56 19.2 0 25.344-10.752 25.344-10.752l1.024 9.728h16.896V637.44H1203.2l0.256 47.616zM1398.528 650.752c6.656 0 11.776 2.304 15.872 7.424 1.536 1.792 2.816 3.328 3.84 5.632l14.592-10.752c-3.328-5.12-7.936-9.216-13.568-11.776-6.144-3.84-13.568-5.632-20.736-5.632-10.752 0-19.712 3.328-28.16 10.752-8.96 8.448-13.568 18.688-13.568 30.976 0 11.264 3.84 20.736 12.288 29.184 7.936 7.936 17.92 12.032 29.184 12.032 7.424 0 14.592-1.536 21.248-5.632 5.12-2.816 9.472-6.656 13.056-11.776l-14.592-10.752c-1.024 2.304-2.304 4.608-3.84 6.144-3.84 5.12-9.472 7.424-15.616 7.424-5.888 0.256-11.52-2.56-15.104-7.424-4.352-5.12-6.656-11.264-6.656-19.2s2.304-14.08 6.656-19.2c3.84-5.12 8.96-7.424 15.104-7.424z" fill="#ffffff" p-id="5363"></path><path d="M1439.232 375.04L1464.32 409.6l20.736-14.848C1470.208 375.296 1454.08 363.52 1454.08 363.52l-14.848 11.52zM1566.72 531.968h-73.472c-6.912 0-12.544-5.632-12.544-12.8v-100.352h-43.52v19.712h14.848V527.36c0 12.8 9.984 23.552 23.04 24.064h166.4v-19.456H1566.72z" fill="#ffffff" p-id="5364"></path><path d="M1633.28 382.208v-23.04H1495.552v19.456h99.84l-28.672 17.408-3.584 2.304c-10.24-5.888-20.736-11.52-25.344-13.824-1.28 0-2.304-1.28-2.304-1.28l-9.216 13.824 9.216 9.216-39.168-0.256-0.256 116.48h8.192c9.216 0 18.432-5.888 18.432-17.152v-16.128h30.976v33.536h12.8c7.936-2.304 12.544-6.912 13.824-17.152v-16.128h30.72v7.936c0 3.328-4.608 5.888-7.936 5.888h-12.544l4.608 17.408 1.28 2.304h18.432c13.824 0 24.064-10.24 24.064-23.04l0.256-77.312c0.256-8.704-6.656-15.872-15.36-16.128H1592.064l3.328-2.304 37.888-22.016z m-79.36 88.576h-30.976v-13.824H1553.92v13.824z m0-32.256h-31.232v-12.8H1553.92v12.8z m57.344 32.512h-30.976v-13.824h30.976v13.824z m-15.872-45.056h16.128v12.8h-30.976v-12.8h14.848z m-282.88 80.128v-21.76l-3.328 1.024-9.216 2.304 0.256-108.288c0-12.544-7.936-19.712-17.152-19.712h-69.12v19.712l45.824 0.256h11.52V409.6h-23.04v-20.736h-26.368l-0.256 121.088-11.52 3.328v21.76l49.408-13.568 11.52-3.328v39.168h11.52c7.936 0 14.848-4.608 17.152-15.104v-32.256l9.216-2.304 3.584-1.536z m-41.216-10.496l-11.52 3.328-11.52 3.328V471.04h23.04v24.576z m0-43.776h-23.04v-23.04h23.04v23.04z" fill="#ffffff" p-id="5365"></path><path d="M1412.608 466.944v-19.456H1374.72v-28.928h37.888v-19.456h-25.344l23.04-28.672-21.76-15.104-27.648 43.776H1341.44l16.128-12.8c-13.568-18.432-26.368-31.232-26.368-31.232l-15.104 9.216 20.736 34.56h-25.344v19.712h32.256v28.928h-32.256v19.712h28.672l-31.232 79.616-2.304 8.192h13.824c7.936 0 16.128-4.608 19.456-11.52l20.736-52.992 27.392 64.768h28.672l-38.912-87.808 34.816-0.512zM929.28 382.208H866.048v-27.648h-33.28v27.648h-41.216v19.712h41.216v79.616h-51.712v-99.072h-33.28l-0.256 117.504h84.992v56.576h4.608c19.456 0 27.648-7.936 28.672-23.04v-33.536h56.32c14.848 0 27.648-11.52 27.648-26.624V401.92c0.256-10.496-8.96-19.712-20.48-19.712z m-11.776 86.272c0 6.912-5.632 12.544-12.544 12.8h-39.168v-79.616H917.504V468.48z m241.408-110.08l-79.36-0.256h-58.624v19.712h58.624l70.144 0.256-0.256 141.824c0 6.912-5.632 11.52-12.544 11.52l-57.6-0.256-68.864-0.256 0.256-172.8h-29.952l-0.256 192.512 98.816 0.256h72.448c15.104 0.256 27.392-11.776 27.648-26.88v-0.768l0.256-144.128c0.256-11.264-8.96-20.736-20.224-20.736h-0.512z" fill="#ffffff" p-id="5366"></path><path d="M1020.928 492.8v19.712H1139.2v-19.712h-14.848l9.216-12.544c-12.544-11.52-22.784-17.408-22.784-17.408l-11.52 11.52 16.128 18.432h-21.76v-32.256h44.8v-19.456h-44.8v-24.32h44.8v-19.712l-58.624-0.256h-57.344v19.712h40.192v24.064h-40.192v19.712h40.192v32.256l-41.728 0.256z" fill="#ffffff" p-id="5367"></path></svg>